<?xml version="1.0" encoding="UTF-8"?>
<!DOCTYPE svg PUBLIC "-//W3C//DTD SVG 1.1//EN" "http://www.w3.org/Graphics/SVG/1.1/DTD/svg11.dtd">
<!-- Creator: CorelDRAW 2020 (64 Bit) -->
<svg xmlns="http://www.w3.org/2000/svg" xml:space="preserve" width="100px" height="42px" version="1.1" style="shape-rendering:geometricPrecision; text-rendering:geometricPrecision; image-rendering:optimizeQuality; fill-rule:evenodd; clip-rule:evenodd"
viewBox="0 0 100 42"
 xmlns:xlink="http://www.w3.org/1999/xlink"
 xmlns:xodm="http://www.corel.com/coreldraw/odm/2003">
 <defs>
  <style type="text/css">
   <![CDATA[
    .fil0 {fill:#FAE900}
   ]]>
  </style>
 </defs>
 <g id="Camada_x0020_1">
  <metadata id="CorelCorpID_0Corel-Layer"/>
  <g id="_2895328362864">
   <path class="fil0" d="M70.89 0.53c-1.94,5.93 -0.15,6.54 9.32,12.28l12.46 7.43c0.19,0.11 0.45,0.33 0.6,0.43l-20.03 13.28c-1,0.74 -2.13,1.34 -2.89,2.71 -2.7,4.87 -0.05,6.44 3.24,4.58l23.13 -15.1c3.04,-1.87 3.15,-1.36 3.28,-4.53 0.16,-4.37 -8.47,-7.99 -14.19,-11.44 -6.64,-4.02 -12.44,-10.95 -14.92,-9.64l0 0 0 0z"/>
   <path class="fil0" d="M29.04 40.31c0.02,-0.03 3.88,-2.13 -2.41,-7.12 -4.6,-3.67 -16.99,-9.06 -20.75,-13l13.41 -8.23c4.62,-2.74 10.26,-4.35 11.61,-11.33 -4.1,-2.78 -10.11,4.33 -15.35,7.36l-11.83 7.08c-4.4,2.47 -3.09,0.1 -3.63,4.32 -0.68,5.26 2.5,5.1 5.89,7.27 2.84,1.83 5.08,3.04 7.8,4.83l11.24 8.1c0.58,0.36 1.13,0.83 1.83,1.03l2.19 -0.31 0 0 0 0z"/>
   <polygon class="fil0" points="41.79,28.19 33.93,20.22 31.51,22.86 41.78,33.23 64.75,11.06 62.05,8.68 "/>
  </g>
 </g>
</svg>
