<?xml version="1.0" encoding="UTF-8"?>
<!DOCTYPE svg PUBLIC "-//W3C//DTD SVG 1.1//EN" "http://www.w3.org/Graphics/SVG/1.1/DTD/svg11.dtd">
<!-- Creator: CorelDRAW 2020 (64 Bit) -->
<svg xmlns="http://www.w3.org/2000/svg" xml:space="preserve" width="30px" height="30px" version="1.1" style="shape-rendering:geometricPrecision; text-rendering:geometricPrecision; image-rendering:optimizeQuality; fill-rule:evenodd; clip-rule:evenodd"
viewBox="0 0 30 30"
 xmlns:xlink="http://www.w3.org/1999/xlink"
 xmlns:xodm="http://www.corel.com/coreldraw/odm/2003">
 <defs>
  <style type="text/css">
   <![CDATA[
    .fil0 {fill:#0A071D}
   ]]>
  </style>
 </defs>
 <g id="Camada_x0020_1">
  <metadata id="CorelCorpID_0Corel-Layer"/>
  <path class="fil0" d="M5.02 11.04c2.59,0.69 2.4,0.97 4.68,2.32 9.99,5.93 5.67,0.25 15.32,-2.32l0 11 -20 0 0 -11zm2 -3l16 0 -8 5c-4.5,-2.38 -3.92,-1.46 -8,-5zm-5 0c0,21.25 -4.76,17 23,17 4.61,0 3,-5.63 3,-17 0,-5.08 -9.19,-3 -23,-3 -2.3,0 -3,0.69 -3,3z"/>
 </g>
</svg>
